<!-- мобилка -->
<svg version="1.1" id="Layer_1" xmlns="http://www.w3.org/2000/svg" xmlns:xlink="http://www.w3.org/1999/xlink" x="0px" y="0px" width="320px" height="26.111px" viewBox="440.469 30.889 320 26.111" enable-background="new 440.469 30.889 320 26.111" xml:space="preserve">
	<g class="bg-intro-triangle bg-intro-triangle--mobile">
		<polygon fill="#FFFFFF" points="760.469,57 760.469,30.889 599.955,57"/>
		<polygon fill="#FFFFFF" points="440.469,57 599.955,57 440.469,31.056"/>
	</g>
</svg>

<!-- планшет -->
<svg version="1.1" id="Layer_1" xmlns="http://www.w3.org/2000/svg" xmlns:xlink="http://www.w3.org/1999/xlink" x="0px" y="0px" width="768px" height="57px" viewBox="216.469 0 768 57" enable-background="new 216.469 0 768 57" xml:space="preserve">
	<g class="bg-intro-triangle bg-intro-triangle--tablet">
		<polygon fill="#FFFFFF" points="249.566,23.71 216.469,20.565 216.469,57 599.955,57 249.566,0"/>
		<polygon fill="#FFFFFF" points="950.346,23.71 950.346,0 599.955,57 984.469,57 984.469,20.468"/>
	</g>
</svg>

<!-- настольный -->
<svg version="1.1" id="Layer_1" xmlns="http://www.w3.org/2000/svg" xmlns:xlink="http://www.w3.org/1999/xlink" x="0px" y="0px" width="1199.91px" height="57px" viewBox="0 0 1199.91 57" enable-background="new 0 0 1199.91 57" xml:space="preserve">
	<g class="bg-intro-triangle bg-intro-triangle--desktop">
		<polygon fill="#FFFFFF" points="250.08,23.71 0.514,0 0.514,57 250.08,57 600.469,57 250.08,0"/>
		<polygon fill="#FFFFFF" points="950.859,23.71 950.859,0 600.469,57 950.859,57 1200.424,57 1200.424,0"/>
	</g>
</svg>
